<svg width="28" height="28" viewBox="0 0 28 28" fill="none" xmlns="http://www.w3.org/2000/svg">
<rect width="28" height="28" rx="14" fill="#633BBC"/>
<path d="M16.985 19H10.993V17.362L12.967 15.36C13.667 14.6413 14.1523 14.0907 14.423 13.708C14.703 13.3253 14.843 12.9193 14.843 12.49C14.843 12.0513 14.7263 11.7433 14.493 11.566C14.269 11.3887 13.947 11.3 13.527 11.3C12.9017 11.3 12.2203 11.356 11.483 11.468L11.147 11.51L11.049 10.012C11.9637 9.732 12.911 9.592 13.891 9.592C15.851 9.592 16.831 10.474 16.831 12.238C16.831 12.9287 16.6817 13.526 16.383 14.03C16.0843 14.534 15.543 15.1453 14.759 15.864L13.149 17.32H16.985V19Z" fill="white"/>
</svg>
